Coordinates
version=1
nRows=23
nColumns=28
inDegrees=yes

Units are S.I. units (second, meters, Newtons, ...)
If the header above contains a line with 'inDegrees', this indicates whether rotational values are in degrees (yes) or radians (no).

endheader
time	pelvis_tilt	pelvis_list	pelvis_rotation	pelvis_tx	pelvis_ty	pelvis_tz	hip_flexion_r	hip_adduction_r	hip_rotation_r	knee_angle_r	knee_rotation_r	knee_adduction_r	ankle_angle_r	subtalar_angle_r	mtp_angle_r	hip_flexion_l	hip_adduction_l	hip_rotation_l	knee_angle_l	knee_rotation_l	knee_adduction_l	ankle_angle_l	subtalar_angle_l	mtp_angle_l	lumbar_extension	lumbar_bending	lumbar_rotation
      0.30000000	      9.67345206	      7.44583465	    -94.85932607	     -0.21598427	      0.94067611	     -0.57033243	     21.41283216	    -16.14237178	     10.21046435	    -65.07651838	      2.11832901	     14.03537852	    -17.00490228	    -32.96531903	    -16.98032626	     34.06357764	      8.58382034	     -0.24577416	    -25.86566293	      6.07117428	     -3.75288574	      7.98791908	    -12.70488717	     -6.84780583	      0.00000000	      0.00000000	      0.00000000
      0.31000000	     10.20217328	      7.10467678	    -94.18354266	     -0.21457179	      0.94272139	     -0.55902916	     22.91515630	    -16.99706110	      9.62605149	    -67.39314331	      1.89327941	     13.90025804	    -16.12381166	    -33.88819375	    -16.85448965	     33.00625822	      9.56095845	     -0.20368819	    -25.94418767	      6.03066532	     -3.71805056	      8.69463147	    -12.25248058	     -6.90041194	      0.00000000	      0.00000000	      0.00000000
      0.32000000	     10.57293559	      6.98747388	    -93.58266588	     -0.21345064	      0.94458600	     -0.54775204	     24.56046739	    -17.62970539	      9.21135895	    -69.30125013	      1.74458893	     13.86891877	    -14.98778186	    -34.28744864	    -16.36480452	     32.05542793	     10.30878110	      0.17162712	    -25.83685073	      6.29438000	     -3.76389532	      9.45174626	    -11.32801780	     -6.92064273	      0.00000000	      0.00000000	      0.00000000
      0.33000000	     10.92415674	      6.60584647	    -93.01282567	     -0.21237485	      0.94705097	     -0.53608874	     25.82092438	    -18.23462580	      8.77285551	    -70.81200639	      1.66004156	     13.67571746	    -13.50671798	    -33.53612393	    -14.47476676	     30.67709035	     11.05207022	      0.26110831	    -25.51441296	      6.09171207	     -3.65867906	     10.32786113	    -10.70958338	     -6.73452160	      0.00000000	      0.00000000	      0.00000000
      0.34000000	     11.18195032	      6.40958139	    -92.32444645	     -0.21138901	      0.94926357	     -0.52459480	     27.19024320	    -18.73069137	      8.44899205	    -72.01486676	      1.72611680	     13.72174665	    -12.81496723	    -33.79642181	    -14.24688353	     29.47036212	     11.68663149	      0.58219337	    -25.20100803	      5.79380523	     -3.60271792	     10.82782732	    -10.58163123	     -6.73733063	      0.00000000	      0.00000000	      0.00000000
      0.35000000	     11.43273610	      6.20276826	    -91.68017956	     -0.21063567	      0.95131551	     -0.51300197	     28.50605647	    -19.12218287	      8.33803828	    -72.90542343	      1.94830581	     13.74000159	    -11.10031621	    -32.34798647	     -8.44543191	     28.23466364	     12.30483371	      0.89835088	    -24.86476524	      5.59274246	     -3.50573020	     11.30119075	    -10.22644298	     -6.08420141	      0.00000000	      0.00000000	      0.00000000
      0.36000000	     11.69850300	      5.87268893	    -90.95285659	     -0.20990003	      0.95342390	     -0.50142051	     29.58225317	    -19.56513492	      8.25697071	    -73.40861843	      2.66788236	     13.88490512	    -10.40242575	    -32.10382869	     -8.41287973	     26.79619181	     12.94302498	      1.55018917	    -24.43763957	      5.57843579	     -3.51839618	     11.90094817	     -9.87826677	     -6.15385893	      0.00000000	      0.00000000	      0.00000000
      0.37000000	     12.03735055	      5.62418425	    -90.28002143	     -0.20910824	      0.95510801	     -0.49009824	     30.77273859	    -20.00253113	      8.91336246	    -73.64933398	      3.39560382	     14.50833105	     -9.65050933	    -31.72000143	     -8.38972664	     25.48421409	     13.65040011	      2.21895945	    -24.07849525	      5.77775744	     -3.45120003	     12.50155563	     -9.34607545	     -6.21328283	      0.00000000	      0.00000000	      0.00000000
      0.38000000	     12.33312344	      5.43608725	    -89.57668626	     -0.20841063	      0.95679845	     -0.47835529	     31.80946795	    -20.39102727	      9.40014415	    -73.46608051	      4.27965951	     15.01238970	     -8.44415629	    -30.97601685	     -8.40897769	     24.14260323	     14.25848121	      3.03844378	    -23.63337848	      6.07369262	     -3.48369788	     13.17480809	     -8.74131245	     -6.27203493	      0.00000000	      0.00000000	      0.00000000
      0.39000000	     12.58409643	      5.24071257	    -88.95112871	     -0.20807775	      0.95853432	     -0.46704785	     32.74311134	    -20.65047329	      9.83063308	    -72.86567772	      5.45084032	     15.47262031	     -7.31776455	    -30.90065399	     -8.56594418	     22.82520903	     14.73698204	      3.77131381	    -23.22011630	      6.41184079	     -3.48096242	     13.67673254	     -8.04778357	     -6.28807373	      0.00000000	      0.00000000	      0.00000000
      0.40000000	     12.83706874	      5.10923819	    -88.17872352	     -0.20761472	      0.96000218	     -0.45583827	     33.56348534	    -21.07408542	     10.35532450	    -71.96581523	      6.25709071	     16.22864141	     -5.85782697	    -30.52247937	     -8.83247827	     21.63282851	     15.20352795	      4.32529103	    -22.95453380	      6.50413282	     -3.45528156	     14.23919450	     -7.26160563	     -6.29421227	      0.00000000	      0.00000000	      0.00000000
      0.41000000	     12.76713456	      5.03467653	    -87.59079006	     -0.20748476	      0.96157247	     -0.44477346	     34.42651875	    -20.86473094	     10.66250762	    -70.92793019	      6.41870301	     16.57172248	     -4.86273013	    -30.16714023	     -9.11436507	     20.53822920	     15.19237385	      4.85737794	    -22.73420080	      6.55670778	     -3.54304214	     14.99101042	     -6.53649381	     -6.28882049	      0.00000000	      0.00000000	      0.00000000
      0.42000000	     12.97978495	      5.01097630	    -87.02493917	     -0.20701262	      0.96269980	     -0.43374052	     35.41335896	    -21.17176797	     11.22354489	    -69.80784423	      6.38034915	     16.95743708	     -3.60137083	    -28.51753386	     -9.18702738	     19.41877974	     15.53520916	      5.47848252	    -22.29333964	      6.80887148	     -3.53182919	     15.43085262	     -5.86136358	     -6.20623424	      0.00000000	      0.00000000	      0.00000000
      0.43000000	     13.09254187	      4.83289817	    -86.50665640	     -0.20634616	      0.96405314	     -0.42254621	     36.01245769	    -21.35238070	     11.57860825	    -68.31895413	      6.24141225	     17.33499565	     -2.80032565	    -27.69352731	     -9.14276982	     18.11870576	     15.77499964	      5.90864489	    -21.86913927	      6.85845737	     -3.41734164	     16.05053575	     -5.17900789	     -6.12512740	      0.00000000	      0.00000000	      0.00000000
      0.44000000	     13.17936240	      4.80756830	    -85.98031471	     -0.20615458	      0.96511902	     -0.41157670	     36.67610436	    -21.37241938	     12.03918183	    -66.65645177	      5.59479588	     17.69023788	     -2.36109028	    -27.21894106	     -9.15751409	     17.02191210	     15.88425161	      6.37766003	    -21.49725873	      6.80177346	     -3.45272845	     16.52404716	     -4.90149106	     -6.08108095	      0.00000000	      0.00000000	      0.00000000
      0.45000000	     13.22370597	      4.70157814	    -85.52955790	     -0.20586875	      0.96609851	     -0.40074283	     37.13710905	    -21.35581506	     12.61374272	    -64.72345278	      4.87921816	     18.07003687	     -1.64487718	    -26.09154337	     -9.18868224	     15.91425532	     15.94011093	      6.61087092	    -21.22726016	      6.84630965	     -3.39345547	     17.06865989	     -3.96266113	     -5.98802072	      0.00000000	      0.00000000	      0.00000000
      0.46000000	     13.07163613	      4.64776696	    -85.14922748	     -0.20555008	      0.96729176	     -0.38977335	     37.39885137	    -21.09491138	     12.84410178	    -62.44985565	      3.82714274	     18.18108252	     -1.29599587	    -25.48309239	     -9.21611779	     14.86005533	     15.77416406	      6.90030739	    -20.91310106	      7.01673227	     -3.35228646	     17.63986161	     -3.19203211	     -5.83302095	      0.00000000	      0.00000000	      0.00000000
      0.47000000	     13.37152718	      4.69218777	    -84.64244415	     -0.20572237	      0.96745419	     -0.37895577	     37.82905161	    -21.20808011	     13.65209636	    -60.52268316	      2.10058669	     18.46340157	      0.04006968	    -24.06088263	     -9.60735514	     13.89650729	     16.05692423	      7.48135353	    -20.62744329	      7.30438659	     -3.38397415	     18.09428987	     -2.46901763	     -5.52017367	      0.00000000	      0.00000000	      0.00000000
      0.48000000	     13.50590713	      4.84879202	    -84.44152343	     -0.20535694	      0.96769770	     -0.36831952	     38.35739071	    -21.33755665	     14.11519287	    -58.12548963	      0.33232615	     18.50651707	      0.26872141	    -22.65328883	     -9.55170836	     13.11844193	     16.23755674	      7.81632959	    -20.33110717	      7.48474025	     -3.29694986	     18.63951903	     -2.10404348	     -5.38649322	      0.00000000	      0.00000000	      0.00000000
      0.49000000	     13.43216544	      4.92882149	    -84.17572580	     -0.20528137	      0.96804377	     -0.35722684	     38.49888063	    -20.98289013	     14.14433712	    -55.58312284	     -1.72959575	     17.94297105	      0.68429458	    -21.14824182	     -9.36805829	     12.21755769	     16.14227833	      8.29728673	    -19.99868180	      7.71496771	     -3.26772328	     19.13395146	     -1.63969752	     -5.23597905	      0.00000000	      0.00000000	      0.00000000
      0.50000000	     13.18137278	      5.21522506	    -83.12024482	     -0.20400928	      0.96851401	     -0.34624636	     38.20109468	    -21.09148528	     13.14124102	    -52.44245160	     -3.72297566	     17.26788684	      1.43298450	    -19.82325429	     -8.79995214	     11.48269988	     16.03232165	      9.46832826	    -19.81221433	      7.62424504	     -3.30864667	     19.44322037	     -1.58871612	     -5.09555043	      0.00000000	      0.00000000	      0.00000000
      0.51000000	     13.47450265	      5.42452552	    -83.52613070	     -0.20548566	      0.96778340	     -0.33584441	     38.56111331	    -20.58817491	     14.52225807	    -49.41771286	     -6.07877695	     16.96611658	      1.45268255	    -18.98855018	     -8.14879733	     10.92631689	     16.04922880	      9.10568394	    -19.55362765	      7.74132481	     -3.35835861	     19.97928098	     -0.97756998	     -5.00488032	      0.00000000	      0.00000000	      0.00000000
      0.52000000	     13.52094896	      5.55311678	    -83.34115767	     -0.20548806	      0.96766088	     -0.32475491	     38.19659969	    -20.36082116	     14.53558063	    -45.81660998	     -8.13634316	     16.11083930	      1.62693742	    -17.97657692	     -7.64068725	     10.05305769	     16.01752711	      9.61738671	    -19.18553282	      8.13125085	     -3.41284131	     20.39238936	     -0.46015684	     -4.84804583	      0.00000000	      0.00000000	      0.00000000
